<?xml version="1.0" encoding="UTF-8"?>
<svg data-bbox="1 4 62 59" viewBox="0 0 64 64" height="64" width="64" xmlns="http://www.w3.org/2000/svg" data-type="color">
    <g>
        <path d="M42 21c-11.6 0-21 9.4-21 21s9.4 21 21 21 21-9.4 21-21-9.4-21-21-21zm11.6 15.8-15 12c-.4.3-1 .3-1.3-.1l-7-7c-.4-.4-.4-1 0-1.4.4-.4 1-.4 1.4 0l6.4 6.4 14.3-11.4c.4-.4 1-.4 1.4 0s.4 1 0 1.4c-.1 0-.1 0-.2.1z" fill="#c4a2fc" data-color="1"/>
        <path d="M42 21c-11.6 0-21 9.4-21 21s9.4 21 21 21 21-9.4 21-21-9.4-21-21-21zm11.6 15.8-15 12c-.4.3-1 .3-1.3-.1l-7-7c-.4-.4-.4-1 0-1.4.4-.4 1-.4 1.4 0l6.4 6.4 14.3-11.4c.4-.4 1-.4 1.4 0s.4 1 0 1.4c-.1 0-.1 0-.2.1z" fill="#c4a2fc" data-color="1"/>
        <path d="M39.8 17.9c1.6-.4 2.5-2.1 2.1-3.7-.4-1.3-1.6-2.2-2.9-2.2h-7c-.7 0-1.5.3-2 .8-.5-.5-1.3-.8-2-.8h-4c-1.7 0-3 1.4-2.9 3.1 0 1.3.9 2.5 2.2 2.8-.2.3-.3.7-.3 1.1v9h-7c-.6 0-1-.4-1-1V13c0-2.4-1.7-4.4-4-4.9 0-.4-.1-.7-.3-1.1H15c.6 0 1-.4 1-1s-.4-1-1-1H9.3c-.7-.6-1.7-1-2.7-1H4c-.6 0-1 .4-1 1v7c0 .6.4 1 1 1h2.6c.7 0 1.5-.2 2.1-.6l-1 11.9c-4 1-6.7 4.6-6.7 8.7 0 .6.4 1 1 1h1.1c.6 3.8 4.2 6.4 8 5.9 3-.5 5.4-2.8 5.9-5.9h14.2c.6 3.8 4.2 6.4 8 5.9 3-.5 5.4-2.8 5.9-5.9H48c.6 0 1-.4 1-1 0-6.4-3.6-12.2-9.2-15.1zM32 14h7c.6 0 1 .4 1 1s-.4 1-1 1h-7c-.6 0-1-.4-1-1s.4-1 1-1zm-8 0h4c.6 0 1 .4 1 1s-.4 1-1 1h-4c-.6 0-1-.4-1-1s.4-1 1-1zm-11-1v14c0 1.7 1.3 3 3 3h7v2H9.1l1.8-21.9c1.3.4 2.1 1.6 2.1 2.9zm-6.4-2H5V6h1.6C8 6 9 7.2 9 8.5S8 11 6.6 11zm.9 15.5L7.1 32h-4c.3-2.5 2.1-4.7 4.4-5.5zM10 38c-2.4 0-4.4-1.7-4.9-4h9.8c-.5 2.3-2.5 4-4.9 4zm15-19c0-.6.4-1 1-1h6c4.9 0 9.6 2.4 12.3 6.5-2.1-1.6-4.6-2.5-7.3-2.5-6.2 0-9.6 4.9-10 10h-2V19zm13 19c-2.4 0-4.4-1.7-4.9-4h9.8c-.5 2.3-2.5 4-4.9 4zm-9-6c.1-1 .3-2 .7-3H40c.6 0 1-.4 1-1s-.4-1-1-1h-9.1c4.6-6.2 15.1-1.9 16.1 5H29z" fill="#151a6a" data-color="2"/>
    </g>
</svg>
