<?xml version="1.0" encoding="UTF-8"?>
<svg data-bbox="2 0.694 60.9 62.51" viewBox="0 0 64 64" height="64" width="64" xmlns="http://www.w3.org/2000/svg" data-type="color">
    <g>
        <path d="M46.7 19.1c-.3-.2-.7-.2-1 0-.7.5-16.4 10.5-16.4 26.9-.2 9.3 7.1 17 16.4 17.2 9.3.2 17-7.1 17.2-16.4V46c.1-16.4-15.5-26.4-16.2-26.9zM46.2 59c-.6 0-1-.4-1-1s.4-1 1-1c6-.1 10.9-5 10.9-11 0-.6.4-1 1-1s1 .4 1 1c0 7.1-5.8 12.9-12.9 13z" fill="#c4a2fc" data-color="1"/>
        <path d="M41 20.2c-2.2-2.7-4.7-5.1-7.6-7-.3-.2-.7-.2-1 0-.6.3-13.4 8.5-13.4 21.8 0 5.6 3.3 10.6 8.4 12.9-.8-8.4 3.2-19 13.6-27.7z" fill="#c4a2fc" data-color="1"/>
        <path d="M51 41h-1V4c.1-1.7-1.1-3.1-2.7-3.3-1.7-.1-3.1 1.1-3.3 2.7L40.7 6H13.3L10 3.5C9.9 1.8 8.4.6 6.7.7S3.9 2.3 4 4v37H3c-.6 0-1 .4-1 1s.4 1 1 1h48c.6 0 1-.4 1-1s-.4-1-1-1zM12 16.5 10 18V6l2 1.5v9zm-2 4 3.3-2.5h27.3l3.3 2.5V41H10V20.5zM44 18l-2-1.5v-9L44 6v12zM14 8h26v8H14V8zM6 41V4c0-.6.4-1 1-1s1 .4 1 1v37H6zm40 0V4c0-.6.4-1 1-1s1 .4 1 1v37h-2z" fill="#151a6a" data-color="2"/>
    </g>
</svg>
