<?xml version="1.0" standalone="no"?>
<!DOCTYPE svg PUBLIC "-//W3C//DTD SVG 20010904//EN"
 "http://www.w3.org/TR/2001/REC-SVG-20010904/DTD/svg10.dtd">
<svg version="1.0" xmlns="http://www.w3.org/2000/svg"
 width="97.000000pt" height="97.000000pt" viewBox="0 0 97.000000 97.000000"
 preserveAspectRatio="xMidYMid meet">

<g transform="translate(0.000000,97.000000) scale(0.100000,-0.100000)"
fill="#000000" stroke="none">
<path d="M338 891 c-76 -25 -118 -52 -177 -116 -54 -60 -89 -137 -98 -219 -8
-66 6 -76 111 -76 45 0 86 4 92 8 6 4 14 25 18 47 15 81 70 136 151 151 48 8
55 17 55 68 l0 39 57 -7 c118 -14 222 -88 271 -194 38 -81 38 -193 0 -273 -33
-72 -95 -134 -167 -167 -80 -38 -192 -38 -272 0 -69 32 -130 90 -164 158 -26
51 -59 67 -71 35 -9 -22 35 -105 84 -157 113 -121 278 -158 437 -98 84 32 183
131 215 215 86 228 -35 470 -266 530 -32 8 -72 15 -89 15 -25 0 -33 6 -42 30
-10 26 -16 30 -50 29 -21 0 -63 -8 -95 -18z m82 -95 l0 -54 -36 -7 c-51 -9
-140 -98 -149 -149 l-7 -36 -53 0 -53 0 9 41 c27 120 127 220 246 248 21 5 39
9 41 10 1 1 2 -23 2 -53z"/>
<path d="M446 655 c-44 -15 -100 -66 -124 -110 -21 -40 -21 -141 0 -180 41
-78 108 -119 193 -120 48 0 69 6 107 28 111 65 140 219 58 310 -27 30 -30 31
-46 15 -15 -15 -15 -20 11 -72 31 -62 29 -97 -5 -154 -26 -42 -99 -76 -144
-68 -77 15 -129 75 -129 151 0 77 50 135 132 150 42 8 54 22 40 47 -11 21 -40
22 -93 3z"/>
<path d="M485 541 c-62 -26 -79 -102 -32 -148 56 -57 151 -17 151 62 0 59 -67
108 -119 86z m59 -76 c3 -8 -2 -21 -10 -29 -20 -20 -44 -9 -44 20 0 19 5 24
24 24 13 0 26 -7 30 -15z"/>
</g>
</svg>
