<?xml version="1.0" standalone="no"?>
<!DOCTYPE svg PUBLIC "-//W3C//DTD SVG 20010904//EN"
 "http://www.w3.org/TR/2001/REC-SVG-20010904/DTD/svg10.dtd">
<svg version="1.0" xmlns="http://www.w3.org/2000/svg"
 width="97.000000pt" height="97.000000pt" viewBox="0 0 97.000000 97.000000"
 preserveAspectRatio="xMidYMid meet">

<g transform="translate(0.000000,97.000000) scale(0.100000,-0.100000)"
fill="#000000" stroke="none">
<path d="M216 895 c-42 -22 -55 -44 -56 -93 0 -37 5 -48 33 -73 74 -68 77 -71
71 -95 -8 -30 49 -114 77 -114 28 0 34 25 14 56 -20 31 -16 44 23 66 l29 18
47 -70 c25 -38 46 -73 46 -77 0 -5 -30 -27 -65 -51 -40 -26 -65 -49 -64 -60 0
-9 21 -48 47 -87 45 -66 49 -70 82 -67 30 2 38 -2 53 -27 9 -16 17 -40 17 -53
0 -35 34 -83 69 -98 59 -24 136 19 99 56 -12 13 -20 14 -37 5 -39 -22 -82 20
-61 60 13 24 65 26 78 3 14 -25 47 -13 47 16 0 16 -11 32 -35 47 -19 13 -42
36 -51 50 -16 24 -16 29 -2 58 15 32 15 33 -36 109 -33 48 -58 76 -70 76 -12
0 -37 30 -75 90 -39 61 -64 90 -76 90 -23 0 -50 36 -50 68 0 36 -27 80 -60 97
-37 19 -57 19 -94 0z m74 -65 c24 -24 24 -30 7 -54 -9 -12 -23 -17 -42 -14
-25 2 -31 8 -33 33 -3 19 2 33 14 42 24 17 30 17 54 -7z m53 -124 c6 -16 -19
-30 -28 -16 -7 11 2 30 15 30 4 0 10 -6 13 -14z m253 -276 c25 -37 25 -41 11
-63 -16 -25 -73 -57 -100 -57 -8 0 -26 19 -40 43 l-25 42 56 37 c32 20 60 37
64 37 4 1 20 -17 34 -39z m26 -172 c-10 -10 -15 -10 -22 2 -6 9 -5 17 3 22 18
11 33 -10 19 -24z"/>
</g>
</svg>
