<?xml version="1.0" standalone="no"?>
<!DOCTYPE svg PUBLIC "-//W3C//DTD SVG 20010904//EN"
 "http://www.w3.org/TR/2001/REC-SVG-20010904/DTD/svg10.dtd">
<svg version="1.0" xmlns="http://www.w3.org/2000/svg"
 width="97.000000pt" height="97.000000pt" viewBox="0 0 97.000000 97.000000"
 preserveAspectRatio="xMidYMid meet">

<g transform="translate(0.000000,97.000000) scale(0.100000,-0.100000)"
fill="#000000" stroke="none">
<path d="M388 899 c-119 -28 -229 -120 -287 -239 -34 -71 -36 -81 -36 -175 0
-94 2 -104 36 -175 47 -97 112 -162 209 -209 71 -34 81 -36 175 -36 94 0 104
2 175 36 95 46 162 112 206 204 42 86 56 183 30 204 -25 21 -41 -1 -54 -77
-15 -85 -46 -147 -102 -202 -89 -90 -216 -126 -336 -97 -170 42 -278 179 -278
352 0 318 382 482 608 261 29 -28 63 -71 75 -94 14 -28 28 -42 42 -42 82 0
-49 191 -174 253 -92 45 -196 58 -289 36z"/>
<path d="M407 714 c-89 -28 -167 -134 -167 -229 0 -54 32 -128 75 -170 138
-138 366 -68 407 126 24 117 -49 239 -163 273 -64 19 -89 19 -152 0z m43 -104
c0 -27 -2 -50 -6 -50 -9 0 -74 54 -74 62 0 9 50 37 68 38 8 0 12 -16 12 -50z
m118 37 l22 -13 -35 -34 -35 -34 0 47 c0 50 8 56 48 34z m92 -114 c0 -9 -16
-13 -47 -13 l-47 0 34 35 34 35 13 -22 c7 -13 12 -29 13 -35z m-298 12 l30
-25 -41 0 c-41 0 -46 5 -35 34 8 21 11 20 46 -9z m8 -130 l-34 -35 -13 22
c-22 40 -16 48 34 48 l47 0 -34 -35z m290 23 c0 -7 -4 -19 -9 -27 -8 -12 -15
-9 -41 12 l-32 27 41 0 c26 0 41 -5 41 -12z m-94 -55 c18 -16 34 -31 34 -35 0
-9 -54 -38 -70 -38 -5 0 -10 22 -10 50 0 28 2 50 6 50 3 0 21 -12 40 -27z
m-120 -70 c-3 -3 -19 0 -36 7 l-31 13 33 34 33 34 3 -41 c2 -23 1 -44 -2 -47z"/>
</g>
</svg>
