<?xml version="1.0" standalone="no"?>
<!DOCTYPE svg PUBLIC "-//W3C//DTD SVG 20010904//EN"
 "http://www.w3.org/TR/2001/REC-SVG-20010904/DTD/svg10.dtd">
<svg version="1.0" xmlns="http://www.w3.org/2000/svg"
 width="97.000000pt" height="97.000000pt" viewBox="0 0 97.000000 97.000000"
 preserveAspectRatio="xMidYMid meet">

<g transform="translate(0.000000,97.000000) scale(0.100000,-0.100000)"
fill="#000000" stroke="none">
<path d="M328 881 c-23 -27 -26 -28 -52 -14 -15 8 -34 12 -41 9 -16 -6 -115
-135 -115 -149 0 -6 7 -18 16 -28 14 -16 16 -54 15 -314 -2 -215 1 -301 10
-311 17 -21 601 -21 618 0 8 9 11 50 9 117 -3 103 -3 104 -28 104 -25 0 -25
-2 -28 -87 l-3 -88 -259 0 -260 0 0 252 0 251 85 114 85 113 112 0 c139 0 185
-18 217 -84 18 -37 21 -61 21 -188 0 -125 2 -147 16 -152 37 -14 44 10 44 158
0 162 -9 202 -53 253 -54 61 -92 73 -249 73 l-136 0 -24 -29z m-94 -127 c-16
-20 -30 -31 -32 -25 -2 6 9 27 24 47 16 20 30 31 32 25 2 -6 -9 -27 -24 -47z"/>
<path d="M460 769 c-10 -18 -2 -30 72 -105 66 -68 87 -84 108 -82 24 3 25 5
28 91 2 57 -1 94 -9 103 -8 10 -36 14 -100 14 -79 0 -89 -2 -99 -21z m150 -64
c0 -14 -1 -25 -3 -25 -2 0 -14 11 -27 25 l-23 25 26 0 c22 0 27 -5 27 -25z"/>
<path d="M451 566 c-16 -19 -11 -35 49 -158 51 -103 53 -127 17 -153 -42 -29
-108 -10 -120 34 -3 11 7 46 22 78 31 64 30 83 -2 83 -16 0 -30 -14 -51 -52
-50 -90 -34 -173 39 -204 67 -27 148 -9 181 41 31 47 21 99 -43 224 -32 63
-63 116 -69 118 -6 2 -17 -3 -23 -11z"/>
</g>
</svg>
