<?xml version="1.0" standalone="no"?>
<!DOCTYPE svg PUBLIC "-//W3C//DTD SVG 20010904//EN"
 "http://www.w3.org/TR/2001/REC-SVG-20010904/DTD/svg10.dtd">
<svg version="1.0" xmlns="http://www.w3.org/2000/svg"
 width="97.000000pt" height="97.000000pt" viewBox="0 0 97.000000 97.000000"
 preserveAspectRatio="xMidYMid meet">

<g transform="translate(0.000000,97.000000) scale(0.100000,-0.100000)"
fill="#000000" stroke="none">
<path d="M162 808 c-6 -6 -12 -34 -12 -60 0 -48 0 -48 -33 -48 -51 0 -57 -13
-57 -126 0 -78 3 -104 15 -114 12 -10 18 -10 30 0 11 9 15 34 15 96 l0 84 365
0 365 0 0 -190 c0 -125 -4 -198 -12 -215 -24 -52 -43 -55 -353 -55 -355 0
-351 -1 -364 120 -6 50 -8 55 -31 55 -24 0 -25 -2 -25 -67 0 -72 14 -102 69
-142 26 -20 40 -21 351 -21 311 0 325 1 351 21 68 50 69 53 72 301 2 161 0
229 -9 239 -6 8 -27 14 -45 14 -34 0 -34 0 -34 49 0 29 -6 53 -14 60 -9 8 -50
11 -117 9 l-104 -3 -3 -57 -3 -58 -94 0 -94 0 -3 58 -3 57 -105 3 c-73 2 -109
-1 -118 -10z m168 -78 l0 -30 -60 0 -60 0 0 30 0 30 60 0 60 0 0 -30z m430 0
l0 -30 -60 0 -60 0 0 30 0 30 60 0 60 0 0 -30z"/>
<path d="M713 603 c-7 -2 -13 -15 -13 -28 0 -17 -7 -24 -30 -28 -24 -5 -30
-12 -30 -32 0 -20 6 -27 30 -31 23 -5 30 -12 30 -29 0 -13 7 -26 16 -29 20 -8
44 11 44 34 0 11 10 20 25 24 14 4 28 13 32 21 7 20 -14 45 -38 45 -12 0 -19
7 -19 18 0 17 -18 43 -29 41 -4 0 -12 -3 -18 -6z"/>
<path d="M162 538 c-18 -18 -15 -36 7 -48 21 -11 120 -14 145 -4 21 8 21 50 0
58 -28 11 -140 6 -152 -6z"/>
<path d="M435 535 c-48 -17 -80 -52 -96 -105 -24 -78 37 -169 123 -185 30 -6
38 -3 46 12 14 25 4 39 -34 47 -109 24 -99 176 11 176 66 0 105 -57 83 -122
-9 -24 -7 -33 6 -46 15 -15 18 -15 36 3 32 32 35 92 8 145 -37 71 -110 101
-183 75z"/>
</g>
</svg>
