<?xml version="1.0" encoding="UTF-8"?>
<svg data-bbox="1 1 62.114 61.909" viewBox="0 0 64 64" height="64" width="64" xmlns="http://www.w3.org/2000/svg" data-type="color">
    <g>
        <path d="M62 21H38c-.4 0-.8.2-.9.6l-8 20c-.2.5 0 1.1.5 1.3h.1l10.9 3.6-7.5 15c-.2.5 0 1.1.5 1.3.3.2.7.1 1-.1l26-20c.4-.3.5-1 .2-1.4l-.3-.3-8.9-4.5 11.2-14c.4-.4.4-1 .1-1.4-.3 0-.6-.1-.9-.1z" fill="#c4a2fc" data-color="1"/>
        <path d="M40 5h-2V3c0-1.1-.9-2-2-2h-4c-1.1 0-2 .9-2 2v2H14V3c0-1.1-.9-2-2-2H8c-1.1 0-2 .9-2 2v2H4C2.3 5 1 6.3 1 8v28c0 1.7 1.3 3 3 3h36c1.7 0 3-1.3 3-3V8c0-1.7-1.3-3-3-3zM3 12h38v20H3V12zm29-9h4v2h-4V3zM8 3h4v2H8V3zM4 7h36c.6 0 1 .4 1 1v2H3V8c0-.6.4-1 1-1zm36 30H4c-.6 0-1-.4-1-1v-2h38v2c0 .6-.4 1-1 1z" fill="#151a6a" data-color="2"/>
        <path d="M36 21h-4c-.6 0-1 .4-1 1s.4 1 1 1h4c.6 0 1-.4 1-1s-.4-1-1-1z" fill="#151a6a" data-color="2"/>
        <path d="M12 21h-1v-1c0-.6-.4-1-1-1s-1 .4-1 1v1H8c-.6 0-1 .4-1 1s.4 1 1 1h1v1c0 .6.4 1 1 1s1-.4 1-1v-1h1c.6 0 1-.4 1-1s-.4-1-1-1z" fill="#151a6a" data-color="2"/>
        <path d="m28.1 16-7-1c-.4-.1-.7.1-.9.4l-3 4c-.3.4-.3 1 .1 1.3l1.5 1.5-2.7 5.4c-.2.4-.1.8.2 1.1.3.3.7.4 1.1.2l9-4c.5-.2.7-.8.5-1.3 0-.1-.1-.2-.2-.3l-1.4-1.4 3.4-4.3c.3-.4.3-1.1-.2-1.4 0-.1-.2-.2-.4-.2zm-4.9 5.4c-.3.4-.3 1 .1 1.3l1 1-5.2 2.3 1.8-3.5c.2-.4.1-.9-.2-1.2L19.3 20l2.1-2.8 4.7.7-2.9 3.5z" fill="#151a6a" data-color="2"/>
    </g>
</svg>
