<?xml version="1.0" encoding="UTF-8"?>
<svg data-bbox="2.007 1.007 59.993 62.1" viewBox="0 0 64 64" height="64" width="64" xmlns="http://www.w3.org/2000/svg" data-type="color">
    <g>
        <path d="M60 33H40c-1.1 0-2 .9-2 2s.9 2 2 2h20c1.1 0 2-.9 2-2s-.9-2-2-2z" fill="#c4a2fc" data-color="1"/>
        <path d="m44.7 17 2.6.8V30c0 .6.4 1 1 1h3.3c.6 0 1-.4 1-1V17.7l2.6-.7c.5-.1.8-.7.7-1.2l-1.7-9c-.1-.5-.5-.8-1-.8h-6.7c-.5 0-.9.3-1 .8l-1.7 9c.1.5.4 1.1.9 1.2z" fill="#c4a2fc" data-color="1"/>
        <path d="m41.9 39-.5 15c-.2 4.8 3.5 8.9 8.3 9.1s8.9-3.5 9.1-8.3V54l-.5-15H41.9z" fill="#c4a2fc" data-color="1"/>
        <path d="m31.5 24.9-2.3-2.4 2.3-2.4c5.1 2 10.8-.5 12.8-5.6 1-2.5.9-5.4-.3-7.9-.2-.5-.8-.7-1.3-.5-.1 0-.2.1-.3.2l-3.8 3.8c-.7.9-1.9 1-2.8.3-.9-.7-1-1.9-.3-2.8l.3-.3 3.8-3.8c.4-.4.4-1 0-1.4-.1 0-.2-.1-.3-.1-4.9-2.4-10.9-.3-13.2 4.7-1.2 2.5-1.3 5.3-.3 7.9l-2.3 2.3-2.4-2.3c2-5.1-.5-10.8-5.6-12.8C13 .7 10.1.8 7.7 2c-.5.2-.7.8-.5 1.3 0 .1.1.2.2.3l3.8 3.8c.9.7 1 1.9.3 2.8s-1.9 1-2.8.3l-.3-.3-3.8-3.8c-.4-.4-1.1-.4-1.5 0 0 .1-.1.2-.1.3-2.4 4.9-.3 10.9 4.7 13.2 2.5 1.2 5.3 1.3 7.9.3l2.3 2.4-2.3 2.4c-5.1-2-10.8.5-12.9 5.6-1 2.6-.9 5.4.3 7.9.2.5.8.7 1.3.5.1 0 .2-.1.3-.2L8.5 35c.7-.9 1.9-1 2.8-.3s1 1.9.3 2.8l-.3.3-3.9 3.8c-.4.4-.3 1 .1 1.4 0-.1.1 0 .2 0 4.9 2.4 10.9.3 13.2-4.7 1.2-2.5 1.3-5.3.3-7.9l2.4-2.3 2.4 2.3c-2 5.1.5 10.8 5.6 12.9 2.6 1 5.4.9 7.9-.3.5-.2.7-.8.5-1.3 0-.1-.1-.2-.2-.3L36 37.6c-.7-.9-.5-2.1.3-2.8.7-.6 1.8-.6 2.5 0l3.8 3.8c.4.4 1 .4 1.4 0 .1-.1.1-.1.1-.2 2.4-4.9.3-10.9-4.7-13.2-2.5-1.3-5.4-1.4-7.9-.3zm-15-6.6c-.3-.3-.8-.4-1.1-.2-4 1.9-8.7.2-10.6-3.7-.8-1.7-1-3.6-.5-5.5L7 11.6c1.7 1.4 4.2 1.1 5.6-.6 1.2-1.5 1.2-3.5 0-5L9.9 3.2c4.2-1.1 8.6 1.4 9.7 5.6.5 1.8.3 3.8-.5 5.5-.2.4-.1.8.2 1.1l2.8 2.8-2.8 2.8-2.8-2.7zm2.6 12.4c1.9 4 .2 8.7-3.7 10.6-1.7.8-3.6 1-5.5.5l2.8-2.8c1.7-1.4 2-3.9.6-5.6s-3.9-2-5.6-.6c-.2.2-.5.4-.6.6l-2.8 2.8c-1.1-4.2 1.4-8.6 5.6-9.7 1.8-.5 3.8-.3 5.5.5.4.2.8.1 1.1-.2l11.3-11.3c.3-.3.4-.8.2-1.1-1.9-4-.2-8.7 3.7-10.6 1.7-.8 3.6-1 5.5-.5L34.4 6c-1.7 1.4-2 3.9-.6 5.6s3.9 2 5.6.6c.2-.2.5-.4.6-.6l2.8-2.8c1.1 4.2-1.4 8.6-5.6 9.7-1.8.5-3.8.3-5.5-.5-.4-.2-.8-.1-1.1.2L19.3 29.5c-.3.3-.4.8-.2 1.2zm23.7 5.4L40 33.4c-1.4-1.7-3.9-2-5.6-.6-1.7 1.4-2 3.9-.6 5.6.2.2.4.5.6.6l2.8 2.8c-4.2 1.1-8.6-1.4-9.7-5.6-.5-1.8-.3-3.8.5-5.5.2-.4.1-.8-.2-1.1L25 26.8l2.8-2.8 2.8 2.8c.3.3.8.4 1.1.2 4-1.9 8.7-.2 10.6 3.7.8 1.7.9 3.6.5 5.4z" fill="#151a6a" data-color="2"/>
    </g>
</svg>
