<svg id="SvgjsSvg1051" width="288" height="288" xmlns="http://www.w3.org/2000/svg" version="1.1" xmlns:xlink="http://www.w3.org/1999/xlink" xmlns:svgjs="http://svgjs.com/svgjs"><defs id="SvgjsDefs1052"></defs><g id="SvgjsG1053"><svg xmlns="http://www.w3.org/2000/svg" data-bbox="1 1 62 62" data-type="color" viewBox="0 0 64 64" width="288" height="288"><path fill="#ff6902" d="M42 21a21 21 0 1 0 21 21 21 21 0 0 0-21-21zm11.62 15.78-15 12a1 1 0 0 1-1.33-.07l-7-7a1 1 0 0 1 1.42-1.42l6.36 6.37 14.31-11.44a1 1 0 1 1 1.24 1.56z" data-color="1" class="colorc4a2fc svgShape"></path><path fill="#2e2e2e" d="M48 1H4a3 3 0 0 0-3 3v28a3 3 0 0 0 3 3h44a3 3 0 0 0 3-3V4a3 3 0 0 0-3-3zM3 32V4a1 1 0 0 1 1-1h21v30H4a1 1 0 0 1-1-1zm46 0a1 1 0 0 1-1 1H27V3h21a1 1 0 0 1 1 1z" data-color="2" class="color151a6a svgShape"></path><path fill="#2e2e2e" d="M17.3 17.72A4.92 4.92 0 0019 14a5 5 0 00-10 0 4.92 4.92 0 001.7 3.72A8 8 0 006 25v1a1 1 0 001 1h14a1 1 0 001-1v-1a8 8 0 00-4.7-7.28zM11 14a3 3 0 113 3 3 3 0 01-3-3zM8 25a6 6 0 0112 0zM34 11h8a1 1 0 000-2h-8a1 1 0 000 2zM45 17H31a1 1 0 000 2h14a1 1 0 000-2zM42 25h-8a1 1 0 000 2h8a1 1 0 000-2z" data-color="2" class="color151a6a svgShape"></path></svg></g></svg>