<svg id="SvgjsSvg1030" width="288" height="288" xmlns="http://www.w3.org/2000/svg" version="1.1" xmlns:xlink="http://www.w3.org/1999/xlink" xmlns:svgjs="http://svgjs.com/svgjs"><defs id="SvgjsDefs1031"></defs><g id="SvgjsG1032"><svg xmlns="http://www.w3.org/2000/svg" data-bbox="1.003 1 61.994 62" data-type="color" viewBox="0 0 64 64" width="288" height="288"><path fill="#ff6902" d="M56.96 39c0 8.284-6.698 15-14.96 15s-14.96-6.716-14.96-15c0-8.284 6.698-15 14.96-15s14.96 6.716 14.96 15zM42 22a2 2 0 002-2v-3a2 2 0 00-4 0v3a2 2 0 002 2zM42 56a2 2 0 00-2 2v3a2 2 0 004 0v-3a2 2 0 00-2-2zM22 29.73l2.59 1.5a2 2 0 002-3.46L24 26.27a2 2 0 00-2 3.46zM62 48.27l-2.59-1.5a2 2 0 00-2 3.46l2.59 1.5a2 2 0 002.73-.73 2 2 0 00-.73-2.73zM24.59 46.77L22 48.27a2 2 0 002 3.46l2.6-1.5a2 2 0 00.72-2.73 2 2 0 00-2.73-.73zM59.41 31.23l2.59-1.5a2 2 0 00.73-2.73 2 2 0 00-2.73-.73l-2.6 1.5a2 2 0 00-.72 2.73 2 2 0 002.73.73z" data-color="1" class="colorc4a2fc svgShape"></path><path fill="#2e2e2e" d="M50.69 16.29 43.24 2.2A2.25 2.25 0 0 0 39 3.27a1 1 0 0 0 2 0 .26.26 0 0 1 .47-.12l7.46 14.09a.6.6 0 0 1-.53.88h-1.25a7 7 0 0 0-6.63-4.8h-5.77a7 7 0 0 0-6.93 6.09 6.27 6.27 0 0 0-3.64 0 7 7 0 0 0-6.93-6.1h-5.77a7 7 0 0 0-6.63 4.8H3.6a.6.6 0 0 1-.53-.88l7.46-14.08a.26.26 0 0 1 .47.12 1 1 0 0 0 2 0A2.25 2.25 0 0 0 8.76 2.2L1.31 16.29a2.62 2.62 0 0 0 2.29 3.85h.9a1.58 1.58 0 0 0 0 .31L4.55 26a7 7 0 0 0 7 7h3.25a9 9 0 0 0 8.93-7.94l.43-3.47a4.24 4.24 0 0 1 3.68 0l.43 3.5A9 9 0 0 0 37.2 33h3.26a7 7 0 0 0 7-7l.06-5.58a1.58 1.58 0 0 0 0-.31h.9a2.62 2.62 0 0 0 2.29-3.85zm-28.95 8.52A7 7 0 0 1 14.8 31h-3.26a5 5 0 0 1-5-5l-.06-5.57a5 5 0 0 1 5-5.09h5.77a5 5 0 0 1 5 5.66zM45.45 26a5 5 0 0 1-5 5H37.2a7 7 0 0 1-6.94-6.18L29.78 21a5 5 0 0 1 5-5.66h5.77a5 5 0 0 1 5 5.09z" data-color="2" class="color151a6a svgShape"></path><path fill="#2e2e2e" d="M15.71 18.42a1 1 0 00-1.42 0l-5 5a1 1 0 101.42 1.42l5-5a1 1 0 000-1.42zM17.29 21.44l-5 5a1 1 0 000 1.42 1 1 0 001.42 0l5-5a1 1 0 000-1.43 1 1 0 00-1.42.01zM39.71 18.42a1 1 0 00-1.42 0l-5 5a1 1 0 101.42 1.42l5-5a1 1 0 000-1.42zM41.29 21.44l-5 5a1 1 0 000 1.42 1 1 0 001.42 0l5-5a1 1 0 000-1.43 1 1 0 00-1.42.01z" data-color="2" class="color151a6a svgShape"></path></svg></g></svg>