<svg id="SvgjsSvg1058" width="288" height="288" xmlns="http://www.w3.org/2000/svg" version="1.1" xmlns:xlink="http://www.w3.org/1999/xlink" xmlns:svgjs="http://svgjs.com/svgjs"><defs id="SvgjsDefs1059"></defs><g id="SvgjsG1060"><svg xmlns="http://www.w3.org/2000/svg" data-bbox="1 3 62 58" data-type="color" viewBox="0 0 64 64" width="288" height="288"><path fill="#ff6902" d="M45 33v9h-6v-9h6z" data-color="1" class="colorc4a2fc svgShape"></path><path fill="#ff6902" d="M47 43a1 1 0 01-1 1h-8a1 1 0 01-1-1V33H23v25a3 3 0 003 3h32a3 3 0 003-3V33H47zM37 31V21H23a2 2 0 00-2 2v6a2 2 0 002 2zM45 21v10h-6V21h6zM61 21H47v10h14a2 2 0 002-2v-6a2 2 0 00-2-2z" data-color="1" class="colorc4a2fc svgShape"></path><path fill="#2e2e2e" d="M49 15V6a3 3 0 0 0-3-3H35a3 3 0 0 0-3 3v6.19a3 3 0 0 0-1-.19h-6a3 3 0 0 0-2 5.19 3.6 3.6 0 0 0 .66 5.43A3.13 3.13 0 0 1 25 25.23v2.7l-7.25-.6a3 3 0 0 1-2.75-3V13a5 5 0 0 0-2-4h5a1 1 0 0 0 0-2h-5.27a4.38 4.38 0 0 0-4.11-3H4a1 1 0 0 0-1 1.28l2 7A1 1 0 0 0 6 13h2.66l-.94 11.31A9 9 0 0 0 1 33a1 1 0 0 0 1 1h1.08c1.15 8 12.69 8 13.84 0h13.16c1.15 8 12.69 8 13.84 0H48a1 1 0 0 0 1-1 16.93 16.93 0 0 0-3.74-10.61l1.5-4.51A3 3 0 0 0 49 15zm-9 3h4.63l-.9 2.71A17 17 0 0 0 40 18zM39 5h3v3h-3zm-5 1a1 1 0 0 1 1-1h2v4a1 1 0 0 0 1 1h5a1 1 0 0 0 1-1V5h2a1 1 0 0 1 1 1v9a1 1 0 0 1-1 1H34zm-9 8h6a1 1 0 0 1 0 2h-6a1 1 0 1 1 0-2zm-.29 7a1.61 1.61 0 0 1 .9-2.95H32a15 15 0 0 1 12.77 7.15c-5.3-4.24-13.72-4.57-17.77 1.3v-1.27A5.1 5.1 0 0 0 24.71 21zm-18-10L5.33 6h3.29A2.45 2.45 0 0 1 11 8.5 2.45 2.45 0 0 1 8.62 11zm5.5 0a3 3 0 0 1 .79 2v11.34a5 5 0 0 0 4.58 5l7.42.62V32H9.09l1.63-19.59A4.37 4.37 0 0 0 12.25 11zM7.54 26.47 7.08 32h-4a7 7 0 0 1 4.46-5.53zM5.1 34h9.8a5 5 0 0 1-9.8 0zm27 0h9.8a5 5 0 0 1-9.8 0zm-5.05-2c1.17-11.9 18.22-9.31 19.86 0z" data-color="2" class="color151a6a svgShape"></path></svg></g></svg>