<svg id="SvgjsSvg1065" width="288" height="288" xmlns="http://www.w3.org/2000/svg" version="1.1" xmlns:xlink="http://www.w3.org/1999/xlink" xmlns:svgjs="http://svgjs.com/svgjs"><defs id="SvgjsDefs1066"></defs><g id="SvgjsG1067"><svg xmlns="http://www.w3.org/2000/svg" data-bbox="1 2 62 60" data-type="color" viewBox="0 0 64 64" width="288" height="288"><path fill="#ff6902" d="M42 20a21 21 0 1 0 21 21 21 21 0 0 0-21-21zm7 22.73-10 5.78a2 2 0 0 1-3-1.74V35.23a2 2 0 0 1 3-1.74l10 5.78a2 2 0 0 1 0 3.46z" data-color="1" class="colorc4a2fc svgShape"></path><path fill="#2e2e2e" d="M48 2H4a3 3 0 0 0-3 3v30a3 3 0 0 0 3 3h13v2a3 3 0 0 0 3 3h2v8a1 1 0 0 0 1 1h6a1 1 0 0 0 1-1v-8h2a3 3 0 0 0 3-3v-2h13a3 3 0 0 0 3-3V5a3 3 0 0 0-3-3zM3 31V9h33v4h-5a3 3 0 0 0-3 3v8a3 3 0 0 0 3 3h5v4zm28-6a1 1 0 0 1-1-1v-8a1 1 0 0 1 1-1h12a1 1 0 0 1 1 1v8a1 1 0 0 1-1 1zm7 2h5a3 3 0 0 0 3-3v-8a3 3 0 0 0-3-3h-5V9h11v22H38zM4 4h44a1 1 0 0 1 1 1v2H3V5a1 1 0 0 1 1-1zm24 46h-4v-7h4zm5-10a1 1 0 0 1-1 1H20a1 1 0 0 1-1-1v-2h14zm15-4H4a1 1 0 0 1-1-1v-2h46v2a1 1 0 0 1-1 1z" data-color="2" class="color151a6a svgShape"></path><path fill="#2e2e2e" d="M15 11a9 9 0 1 0 9 9 9 9 0 0 0-9-9zm0 16a7 7 0 1 1 7-7 7 7 0 0 1-7 7z" data-color="2" class="color151a6a svgShape"></path><path fill="#2e2e2e" d="M15 15a5 5 0 1 0 5 5 5 5 0 0 0-5-5zm0 8a3 3 0 1 1 3-3 3 3 0 0 1-3 3z" data-color="2" class="color151a6a svgShape"></path></svg></g></svg>