<svg id="SvgjsSvg1001" width="288" height="288" xmlns="http://www.w3.org/2000/svg" version="1.1" xmlns:xlink="http://www.w3.org/1999/xlink" xmlns:svgjs="http://svgjs.com/svgjs"><defs id="SvgjsDefs1002"></defs><g id="SvgjsG1008"><svg xmlns="http://www.w3.org/2000/svg" data-bbox="1 1 62.005 62.25" data-type="color" viewBox="0 0 64 64" width="288" height="288"><path fill="#ff6902" d="M46.69 19.15a1 1 0 0 0-1 0C45 19.57 29.33 29.63 29.33 46A16.84 16.84 0 1 0 63 46c0-16.37-15.64-26.43-16.31-26.85zM46.16 59a1 1 0 0 1 0-2 11 11 0 0 0 10.9-11 1 1 0 1 1 2 0 13 13 0 0 1-12.9 13z" data-color="1" class="colorc4a2fc svgShape"></path><path fill="#ff6902" d="M41 20.16a34.29 34.29 0 0 0-7.63-7 1 1 0 0 0-1.05 0C31.75 13.49 19 21.69 19 35.05a14 14 0 0 0 8.44 12.85c-.83-8.42 3.12-19.02 13.56-27.74z" data-color="1" class="colorc4a2fc svgShape"></path><path fill="#2e2e2e" d="M44 13.93 23 7V3h1a1 1 0 0 0 0-2H8a1 1 0 0 0 0 2h1v3.71a16 16 0 0 0-2 1.2A14.26 14.26 0 0 0 1 19.6 14.42 14.42 0 0 0 15.4 34h25.3A10.3 10.3 0 0 0 44 13.93zM11 3h10v3.28a14.76 14.76 0 0 0-10-.39zm29.7 29H15.4a12.4 12.4 0 1 1 3.93-24.17l24 8A8.3 8.3 0 0 1 40.7 32z" data-color="2" class="color151a6a svgShape"></path><path fill="#2e2e2e" d="M28 15H14a5 5 0 0 0 0 10h6a5 5 0 0 0 4.91-4.09A5 5 0 0 0 29 16a1 1 0 0 0-1-1zm-17 5a3 3 0 1 1 3 3 3 3 0 0 1-3-3zm9 3h-2a4.84 4.84 0 0 0 .93-2h3.93A3 3 0 0 1 20 23zm4-4h-5.1a4.84 4.84 0 0 0-.9-2h8.86A3 3 0 0 1 24 19z" data-color="2" class="color151a6a svgShape"></path></svg></g></svg>